<svg xmlns="http://www.w3.org/2000/svg" width="1904" height="674.253" viewBox="0 0 503.767 178.396"><path d="M0 89.23V.061l.54.333C.839.578 20.802 29.601 44.904 64.89s44.8 65.47 45.994 67.072c7.595 10.175 20.276 20.067 32.695 25.504 17.688 7.744 36.957 9.17 57.515 4.259 1.747-.418 4.723-1 6.615-1.293 3.74-.58 28.957-4.526 61.119-9.564 105.66-16.551 179.472-28.936 190.764-32.008 1.019-.277 3.162-.753 4.763-1.057 7.746-1.47 16.024-5.362 23.68-11.135 14.908-11.242 25.954-29.555 31.843-52.792 1.175-4.64 2.608-11.552 2.972-14.342.112-.858.266-1.279.392-1.073.13.21.25-.056.316-.706.059-.574.127 30.836.151 69.799l.045 70.842H0z" fill="transparent"/><path d="M0 89.173C0 1.293.008-.043.506.47c.279.287 20.46 29.736 44.85 65.443 24.389 35.706 45.136 65.948 46.106 67.204 2.324 3.011 9.558 10.206 13.048 12.978 10.779 8.56 23.137 14.385 35.972 16.954 6.857 1.373 9.898 1.676 16.945 1.685 8.545.011 14.898-.734 23.548-2.763 1.819-.426 9.737-1.78 17.595-3.01l22.886-3.579c129.864-20.31 208.559-33.392 217.457-36.15.672-.208 2.788-.672 4.703-1.032 14.822-2.782 29.266-12.618 39.821-27.117 5.439-7.471 10.386-17.29 13.729-27.253 2.318-6.907 3.72-12.386 5.418-21.166.38-1.965.787-3.989.906-4.498.119-.51.23 30.834.246 69.651l.03 70.578H0z" fill="transparent"/><path d="M0 89.179C0 36.059.097.063.239.212.37.351 20.541 29.836 45.063 65.735c24.522 35.9 45.278 66.141 46.125 67.204 10.412 13.07 25.59 23.455 41.236 28.216 9.362 2.849 17.775 3.94 28.292 3.666 7.318-.19 13.819-1.074 20.788-2.83 1.092-.274 6.926-1.276 12.965-2.226s16.219-2.554 22.622-3.563a3974.62 3974.62 0 0116.271-2.538c14.184-2.15 82.243-12.968 110.067-17.495 54.592-8.883 90.365-15.189 95.922-16.908.722-.224 2.677-.645 4.344-.935 9.594-1.674 20.206-7.188 29.136-15.139 10.426-9.282 19.349-23.722 24.727-40.017 2.178-6.598 4.534-16.38 6.022-25.003.063-.364.13 31.039.15 69.784l.037 70.445H0z" fill="transparent"/><path d="M0 89.198V0l1.507 2.216c21.517 31.642 88.177 129.006 89.375 130.54 2.054 2.63 5.617 6.46 8.7 9.353 11.706 10.986 26.33 18.455 41.97 21.437 6.02 1.148 9.196 1.438 15.875 1.45 8.535.017 14.88-.726 23.548-2.76 3.374-.79 8.34-1.586 64.426-10.319 99.839-15.545 185.113-29.846 193.867-32.513.913-.278 2.85-.705 4.306-.95 8.564-1.436 18.168-6.06 26.458-12.737 3.588-2.89 9.563-9.08 12.339-12.783 8.325-11.105 14.203-23.915 18.091-39.421 1.049-4.182 2.4-10.715 3.011-14.552.136-.854.245 27.67.263 68.99l.03 70.445H0z" fill="transparent"/><path d="M.018 89.165C.032 20.297.108.085.348.596.897 1.753 88.006 129.182 90.42 132.358c2.73 3.592 9.952 10.926 13.689 13.904 5.873 4.679 13.584 9.354 19.848 12.032 11.748 5.024 23.298 7.156 36.776 6.787 7.297-.2 12.633-.915 20.26-2.716 3.185-.753 12.265-2.202 64.673-10.326 8.003-1.24 24.97-3.908 37.703-5.929 94.297-14.963 147.654-24.069 156.41-26.692.923-.276 2.274-.582 3.001-.68 5.63-.753 13.168-3.631 19.502-7.446 18.424-11.1 31.614-31.035 38.403-58.044.918-3.654 2.33-10.68 2.765-13.758.152-1.074.257 24.69.28 68.593l.037 70.313H0z" fill="transparent"/><path d="M0 89.348C0 30.05.088.355.265.464c.145.09.264.332.264.538 0 .454 87.275 128.281 89.504 131.092 6.634 8.365 14.516 15.394 23.256 20.738 10.689 6.536 21.369 10.228 34.613 11.966 4.866.638 14.555.64 19.844.004 4.362-.525 9.7-1.472 13.607-2.415 1.466-.354 8.023-1.478 14.571-2.497 6.548-1.02 16.421-2.573 21.94-3.451 5.517-.879 11.47-1.783 13.228-2.01 5.544-.717 74.132-11.584 112.734-17.862 35.65-5.798 74.954-12.493 81.408-13.867 1.065-.226 4.517-.946 7.673-1.6 3.155-.653 6.191-1.348 6.747-1.544.555-.196 1.903-.5 2.994-.676 9.203-1.479 19.077-6.156 27.778-13.157 9.713-7.815 18.278-19.834 24.459-34.32 3.647-8.546 7.236-21.9 8.578-31.913.135-1.01.245 27.342.267 68.593l.037 70.313H0z" fill="transparent"/><path d="M0 89.348C0 30.05.088.355.265.464c.145.09.264.395.264.679 0 .283 16.452 24.594 36.56 54.025 20.107 29.43 39.932 58.451 44.056 64.49 4.124 6.04 7.817 11.338 8.207 11.774.39.437 1.387 1.64 2.216 2.673 2.274 2.832 6.103 6.757 9.503 9.742 19.367 17.001 43.444 24.156 69.453 20.638 3.2-.433 8.706-1.487 10.98-2.102.8-.217 7.885-1.403 15.743-2.636l23.415-3.678c5.021-.79 9.962-1.516 10.98-1.613 1.02-.097 3.282-.403 5.028-.678 1.746-.276 13.057-2.057 25.135-3.958 105.876-16.667 163.575-26.436 176.68-29.913a76.48 76.48 0 014.709-1.045c11.224-2.073 22.187-7.972 31.677-17.045 9.939-9.5 18.132-23.32 23.385-39.44 2.232-6.85 4.543-16.897 5.205-22.623.134-1.163.245 27.125.267 68.329l.039 70.313H0z" fill="#343435"/><path d="M.02 112.845C.033 76.793.1 47.474.174 47.692c.071.218.226.635.344.926.117.29.831 3.07 1.586 6.178C5.683 69.522 11.616 84.08 18.407 94.8c8.27 13.053 18.006 22.187 29.88 28.03 6.623 3.259 12.956 5.077 18.917 5.432 1.738.104 21.284 3.161 22.024 3.445.22.085 1.413 1.367 2.65 2.85 14.784 17.721 35.91 28.723 58.75 30.597 9.638.79 19.351-.012 30.215-2.496 2.183-.499 6.35-1.275 9.26-1.725 2.91-.45 13.182-2.063 22.826-3.584s18.155-2.766 18.914-2.766c.758 0 17.87 2.617 38.028 5.815 20.157 3.198 39.447 6.244 42.867 6.77 6.418.985 11.962 1.9 15.875 2.618 19.448 3.57 38.254 1.043 55.016-7.39 8.841-4.45 18.289-11.716 24.11-18.545 6.76-7.932 18.408-20.937 18.997-21.212.384-.18 2.841-.747 5.46-1.26 2.62-.514 5.835-1.219 7.145-1.567 1.31-.348 3.69-.89 5.291-1.203 12.681-2.485 26.355-11.175 36.008-22.884 7.287-8.838 13.304-20.07 17.422-32.52 2.5-7.562 4.786-17.25 5.204-22.067.147-1.7.32-3.144.384-3.208.064-.064.117 31.515.117 70.175v70.291H0z" fill="#18191a"/><path d="M.027 113.242c.015-35.834.125-64.737.244-64.227.119.51.538 2.355.933 4.1C2.57 59.173 4.94 66.895 7.54 73.754c3.679 9.708 8.36 18.648 13.576 25.93 1.25 1.746 2.34 3.234 2.42 3.307.137.125.6.668 2.89 3.39 1.163 1.382 5.924 6.156 7.495 7.514 4.394 3.8 8.967 6.826 14.1 9.333 6.542 3.193 12.06 4.824 18.39 5.435 1.673.162 7.49 1 12.926 1.863s9.972 1.569 10.079 1.569c.107 0 1.155 1.162 2.33 2.582 2.78 3.366 8.706 9.15 12.372 12.076 10.895 8.696 23.58 14.622 36.802 17.192 6.557 1.275 9.627 1.569 16.507 1.582 8.53.016 14.853-.724 23.548-2.758 1.819-.425 9.38-1.723 16.801-2.884 7.422-1.161 17.634-2.769 22.695-3.573 5.06-.805 9.69-1.463 10.286-1.463.597 0 17.531 2.613 37.63 5.807 20.1 3.194 39.343 6.242 42.763 6.773 8.05 1.25 15.197 2.413 17.86 2.906 9.15 1.694 20.187 1.878 29.765.497 13.111-1.89 26.803-7.678 37.703-15.936 1.5-1.137 2.075-1.605 4.86-3.963 1.857-1.571 5.592-5.402 7.311-7.496.873-1.065 2.004-2.379 2.513-2.92a76.61 76.61 0 001.985-2.223c.582-.68 1.534-1.769 2.117-2.418 2.297-2.563 2.683-3 3.704-4.201a92.23 92.23 0 011.984-2.25 96.866 96.866 0 001.984-2.245 75.743 75.743 0 012.183-2.425c.619-.652 1.125-1.287 1.125-1.412 0-.46 1.174-.814 6.08-1.83 2.766-.573 5.714-1.238 6.552-1.476.838-.239 2.754-.654 4.258-.922 7.49-1.339 14.775-4.388 22.065-9.235 18.441-12.261 31.244-33.77 37.227-62.54.446-2.147.82-4.643.831-5.546.011-.903.115-2.178.232-2.832.116-.655.226 30.45.245 69.122l.033 70.313H0z" fill="#18191a"/></svg>