<svg height="512" width="512" xmlns="http://www.w3.org/2000/svg"><path d="M408 256v48h-96v-48a15.989 15.989 0 0016-16v-16h64v16a15.979 15.979 0 0016 16z" fill="#fdc8a2"/><path d="M393.27 246.24a76.106 76.106 0 01-68.31 3.15A15.959 15.959 0 00328 240v-16h64v16a15.851 15.851 0 001.27 6.24z" fill="#fdbf92"/><path d="M243.931 286.173L224 336h64v120h144V336h56v-32a48 48 0 00-48-48h-32l-8.974 11.965A50.087 50.087 0 01358.956 288a50.088 50.088 0 01-44.8-27.688L312 256h-23.5a48 48 0 00-44.569 30.173z" fill="#de5540"/><path d="M424 304h16v32h-16zm-64 24a88.122 88.122 0 01-44-11.79l8-13.856a72 72 0 0067.384 2.446l6.975 14.4A88.508 88.508 0 01360 328z" fill="#d64a34"/><path d="M240 456h-64l48-120h64z" fill="#fdc8a2"/><path d="M432 176h-16v-48h16a24 24 0 0124 24 24 24 0 01-24 24zm-152-48h16v48h-16a24 24 0 01-24-24 24 24 0 0124-24z" fill="#fdb683"/><path d="M328 64h56a48 48 0 0148 48v52a76 76 0 01-76 76 76 76 0 01-76-76v-52a48 48 0 0148-48z" fill="#fdc8a2"/><path d="M432 128l-17.642-5.881A44.4 44.4 0 01384 80V40a48 48 0 0148 48z" fill="#7d4a38"/><path d="M384 40v40a190.267 190.267 0 01-50.48 23.83 190.5 190.5 0 01-55.21 8.17H264V88a64 64 0 0164-64h30.11A28.939 28.939 0 01384 40z" fill="#844e3a"/><path d="M365.66 61.66c-1.06 1.06-26.84 26.08-100.78 34.29l-.88.08V88a63.749 63.749 0 01.51-8.11c34.56-3.98 57.09-11.75 69.96-17.61 14.05-6.4 19.87-11.93 19.92-11.99zm-42.08-6.5C322.86 55.52 305.5 64 272 64l-3.28-.16a63.153 63.153 0 019.4-15.94c25.29-.89 38.21-7.01 38.35-7.08z" fill="#784533"/><path d="M320 160a16 16 0 1116-16 16.019 16.019 0 01-16 16zm64 0a16 16 0 1116-16 16.019 16.019 0 01-16 16z" fill="#844e3a"/><path d="M352 192.021a51.957 51.957 0 01-28.363-8.408l8.726-13.411a36.026 36.026 0 0039.274 0l8.726 13.411A51.957 51.957 0 01352 192.021z" fill="#fcb079"/><path d="M24 456h464v32H24z" fill="#844e3a"/><rect fill="#d5d5d3" height="192" rx="24" width="272" x="24" y="200"/><path d="M96 232h32v16H96zm48 0h32v16h-32zm48 0h32v16h-32zm48 0h32v16h-32zm-192 0h32v16H48z" fill="#c6c6c4"/><path d="M160 392h32l-8-48h-24z" fill="#cececc"/><path d="M112 424h96v32h-96z" fill="#d5d5d3"/><path d="M160 456H80l48-112h56z" fill="#dfdfdd"/><path d="M240 424h96v32h-96z" fill="#d5d5d3"/><path d="M432 336v64H328a32 32 0 00-32 32v16a8 8 0 008 8h128a56 56 0 0056-56v-64z" fill="#fdc8a2"/></svg>