<svg xmlns="http://www.w3.org/2000/svg" width="1904" height="674" viewBox="0 0 503.767 178.329"><path d="M332.869 171.174c-.874-.111-3.612-.521-6.086-.911s-5.57-.869-6.88-1.065c-1.309-.196-3.154-.475-4.1-.62-.946-.144-3.863-.57-6.482-.948-2.62-.377-5.418-.802-6.218-.943-.8-.142-3.896-.618-6.88-1.059-2.982-.44-6.971-1.037-8.863-1.326-1.892-.289-5.047-.763-7.011-1.054-3.972-.59-5.25-.787-10.054-1.56a736.04 736.04 0 00-7.938-1.213 641.165 641.165 0 01-7.011-1.066c-1.31-.213-3.632-.567-5.16-.787-6.15-.887-20.107-3.188-20.795-3.427-.159-.056-3.493.367-7.408.938-3.915.572-8.845 1.278-10.955 1.57-6.29.869-12.698 1.825-19.712 2.942-3.638.579-8.445 1.343-10.682 1.697-2.238.355-5.214.874-6.615 1.155-10.79 2.16-21.657 2.476-31.386.914-5.56-.892-13.504-3.17-18.124-5.198-3.86-1.694-11.221-5.595-12.43-6.587-.505-.415-1.049-.755-1.206-.755-.158 0-.527-.224-.82-.497-.294-.274-1.003-.793-1.576-1.155-.573-.362-1.203-.852-1.4-1.09-.198-.238-.503-.433-.678-.433-.175 0-.607-.312-.96-.694-.353-.382-1.237-1.138-1.964-1.68-1.43-1.065-2.142-1.717-5.895-5.402-2.448-2.403-5.488-5.635-6.78-7.208-.375-.456-.95-.89-1.28-.967-1.568-.365-4.992-1.025-6.418-1.238-.873-.13-3.552-.604-5.953-1.054-2.401-.449-5.55-.94-6.998-1.092-8.974-.937-17.22-3.471-25.546-7.85-9.638-5.07-17.547-11.951-24.665-21.462-5.436-7.265-11.107-18.278-12.893-25.04a276.99 276.99 0 00-1.338-4.894l-1.345-4.63c-.88-3.021-9.608-26.024-9.608-24.915.631 17.081 4.623 22.148-8.163 26.358-.35.116 8.384 9.294 8.73 9.294.147 0 1.168 1.776 1.011 2.19-.412.554 2.639-.866 2.24-.61-.203.127-3.625 6.328-3.528 7.323.08.824 3.713-2.448 3.584-2.24-.142.23-.31 1.26-.137 1.469.156.188.03 2.018-.052 2.523-.082.506-.272.918-.136 1.002.34.21 4.826-4.607 4.477-4.391-.174.107-.216.573-.109 1.206.114.673.074 1.031-.113 1.031-.44 0-.343 1.089.145 1.628.3.33.353.582.172.814-.145.185-.263 1.422-.265 2.75-.001 1.326-.07 2.524-.155 2.66-.084.136-.034.717.112 1.29.34 1.339.336 1.23.108 3.558-.259 2.641-.231 3.834.102 4.458.195.364.189.77-.022 1.376-.222.637-.223.981-.001 1.336.197.316.224.874.079 1.652-.12.646-.124 1.345-.008 1.553.121.217.056.678-.154 1.082-.233.449-.27.764-.102.868.146.09.231.479.19.864-.04.386.024.858.142 1.05.118.19.13.786.027 1.322-.234 1.215-.273 5.16-.054 5.514.09.144-.002.579-.203.966-.233.448-.27.763-.102.867.146.09.231.479.19.865-.04.386.024.858.142 1.049.118.191.13.787.027 1.323-.234 1.214-.273 5.159-.054 5.513.09.144-.002.58-.203.966-.233.449-.27.764-.102.868.146.09.24.478.209.864-.03.386.03.897.133 1.137.103.239.044.953-.132 1.587-.175.634-.304 1.831-.286 2.66.018.83-.084 1.581-.227 1.67-.144.088-.26.563-.26 1.056.16.702-.521 1.154-.53 1.728 0 .295-.33.678-.79.915-1.704-7.888-.792-24.3-.793-34.72-.002-19.32-.081-51.707-.176-71.97L-.452 0h503.858l-.02 16.926c-.012 9.31-.113 16.983-.225 17.052-.111.07-.222.852-.247 1.74-.033 1.222.036 1.568.283 1.419.218-.131.206-.047-.034.25-.2.245-.3.684-.223.976.076.292.046.53-.067.53-.112 0-.273.447-.356.993-.318 2.084-2.279 12.462-2.688 14.225-1.05 4.53-1.56 6.52-2.303 8.992-1.34 4.456-1.868 6.074-2.074 6.35-.109.146-.469 1.098-.8 2.117-.333 1.018-.704 1.965-.827 2.103a1.013 1.013 0 00-.222.577c0 .294-1.995 4.747-2.711 6.051-.16.291-.749 1.422-1.309 2.514-.56 1.091-1.224 2.303-1.476 2.693-.251.39-.99 1.58-1.64 2.646-3.278 5.363-9.697 12.818-14.295 16.604-.946.778-1.78 1.496-1.852 1.594-.123.165-6.135 4.248-7.293 4.952-.282.172-2.299 1.2-4.481 2.285-6.564 3.262-13.882 5.444-26.664 7.952l-1.529.3-8.213 7.805c-4.518 4.293-8.652 8.338-9.187 8.99-6.26 7.62-12.323 13.802-17.535 17.877-3.298 2.58-10.905 7.067-14.665 8.652-3.08 1.298-7.455 2.832-9.917 3.476-1.528.4-3.492.915-4.365 1.146-5.36 1.418-8.533 1.663-21.035 1.624-6.039-.018-11.694-.125-12.567-.237z" fill="#f3f3f3"/><path d="M149.645 165.201c-16.504-1.484-31.701-7.66-45.022-18.299-5.678-4.534-12.086-11.076-16.128-16.466-1.297-1.729-24.607-35.79-64.005-93.527C3 5.417.335 1.46.214.863.148.537-.01.336-.14.416-.269.496-.374.434-.374.28-.374.083 74.408 0 251.518 0h251.893l-.113 16.867c-.062 9.277-.234 17.939-.38 19.249-.39 3.465-2.554 14.915-3.777 19.976-3.22 13.332-7.557 23.773-13.85 33.337-5.611 8.53-12.884 15.692-21.107 20.79-5.517 3.42-12.964 6.565-19.661 8.302-3.931 1.02-16.042 3.604-19.315 4.123-1.455.23-3.15.531-3.768.668a51.66 51.66 0 01-2.91.513c-.984.145-2.8.451-4.038.68-1.236.228-3.201.578-4.365.777-1.164.2-3.903.674-6.086 1.054-2.182.38-5.635.977-7.672 1.326-2.038.35-5.133.888-6.88 1.197-10.126 1.794-71.197 12.069-84.799 14.267-1.819.294-6.64 1.077-10.715 1.74a7299.411 7299.411 0 01-17.198 2.778c-1.746.28-5.854.931-9.128 1.446-3.274.514-6.668 1.052-7.54 1.194-.874.143-3.612.567-6.086.944-4.836.735-10.324 1.574-13.097 2.002-3.372.52-6.718 1.007-25.136 3.654-18.614 2.675-36.642 5.483-43.378 6.756-6.28 1.187-9.202 1.485-15.491 1.578-3.347.05-6.622.042-7.276-.017z" fill="#d2d2d2"/><path d="M148.057 164.795c-15.13-1.4-30.546-7.81-43.343-18.02-3.974-3.172-11.25-10.379-14.183-14.051-1.943-2.433-16.592-23.76-59.903-87.216C4.735 7.572.155.808.155.506c0-.15-.12-.2-.265-.11-.145.09-.264.038-.264-.116 0-.197 74.78-.28 251.883-.28h251.883v16.002c0 9.919-.106 16.734-.28 17.926-.966 6.597-3.185 18.365-4.33 22.957-3.267 13.105-7.433 23.07-13.491 32.28-3.053 4.64-5.873 8.044-10.007 12.077-5.467 5.334-10.598 8.947-17.268 12.158-7.949 3.827-16.89 6.23-34.792 9.35-2.547.444-7.31 1.278-10.584 1.854-62.927 11.064-147.394 24.916-185.605 30.438a2409.03 2409.03 0 00-11.774 1.723c-1.382.211-4.775.693-7.54 1.07-5.895.805-23.18 3.486-29.634 4.598-2.474.426-6.224 1.072-8.334 1.434-6.948 1.194-15.07 1.542-21.696.928z" fill="transparent"/><path d="M149.115 164.671c-16.525-1.477-31.651-7.769-45.213-18.807-3.558-2.895-10.382-9.738-13.102-13.139-1.148-1.435-11.257-16.02-22.465-32.411C45.65 67.134 12.71 18.875 5.063 7.614 2.323 3.579-.02.342-.146.419-.27.497-.374.434-.374.28-.374.083 74.407 0 251.515 0h251.889l-.072 16.603-.072 16.602-1.798 9.525c-2.633 13.952-4.064 19.581-6.996 27.517-6.608 17.885-16.874 31.23-30.547 39.708-9.12 5.654-18.605 8.637-38.71 12.172-3.784.665-9.5 1.67-12.7 2.234-72.225 12.717-154.714 26.107-204.656 33.22-11.01 1.568-29.178 4.446-34.912 5.53-6.493 1.227-9.158 1.49-16.02 1.58-3.638.048-7.15.039-7.806-.02z" fill="transparent"/><path d="M149.38 164.415c-.51-.059-2.057-.233-3.44-.388-14.831-1.661-29.153-7.94-42.038-18.428-3.554-2.893-10.115-9.473-12.838-12.875-1.149-1.436-11.136-15.843-22.194-32.015C43.71 63.912 15.56 22.671 7.08 10.186 3.523 4.948.485.58.331.48.174.381-.048.358-.164.43-.28.502-.374.434-.374.28-.374.083 74.408 0 251.518 0h251.893l-.075 16.943c-.055 12.211-.16 16.996-.374 17.132-.164.104-.38.724-.479 1.38a75.766 75.766 0 01-.435 2.513c-.14.727-.848 4.56-1.572 8.518-1.541 8.434-3.82 17.546-5.41 21.644-.339.873-.998 2.6-1.464 3.837-2.118 5.615-5.327 11.858-8.84 17.198-6.666 10.13-15.416 18.055-25.583 23.166-6.891 3.464-11.66 5.046-21.536 7.141-1.164.247-2.771.607-3.571.799-.8.192-4.61.9-8.467 1.575-3.856.674-9.63 1.687-12.832 2.25-3.202.564-11.774 2.045-19.05 3.29-7.276 1.246-14.182 2.44-15.346 2.656-2.6.481-31.456 5.354-50.8 8.579-45.5 7.585-93.451 15.09-116.946 18.303-8.22 1.124-31.359 4.726-34.66 5.395-7.795 1.58-11.625 2.004-19.05 2.109-3.638.051-7.032.045-7.541-.013z" fill="transparent"/><path d="M148.85 164.142c-16.362-1.458-31.332-7.722-44.948-18.808-3.55-2.89-9.848-9.207-12.573-12.61-1.15-1.436-11.137-15.843-22.195-32.015C43.28 62.897 15.583 22.317 7.35 10.186A2711.187 2711.187 0 00.814.581C.775.537.492.481.184.46-.122.435-.373.323-.373.209-.374.093 112.973 0 251.509 0h251.883l-.03 16.338c-.018 8.986-.123 16.695-.234 17.132-.19.749-.205.756-.254.132-.029-.364-.099-.542-.156-.397-.056.146-.886 4.551-1.843 9.79-2.487 13.617-4.08 19.917-6.958 27.516-6.718 17.74-16.674 30.655-29.998 38.914-3.448 2.138-9.815 5.167-13.575 6.46-5.493 1.886-13.272 3.673-24.871 5.713l-12.7 2.234c-72.224 12.717-154.714 26.107-204.656 33.22-11.01 1.568-29.177 4.446-34.911 5.53-6.59 1.245-9.136 1.493-16.285 1.581-3.784.047-7.415.037-8.07-.021z" fill="transparent"/></svg>