<svg xmlns="http://www.w3.org/2000/svg" viewBox="0 0 512.002 512.002"><g fill="#88b337"><path d="M423.622 332.518a20.746 20.746 0 00-3.089-10.944l-19.681-31.683a34.696 34.696 0 01-3.707-15.709v-97.61c0-63.367-51.364-114.731-114.731-114.731h-52.953c-63.367 0-114.731 51.364-114.731 114.731v97.61a34.667 34.667 0 01-3.707 15.709l-19.681 31.683a20.746 20.746 0 00-3.089 10.944c.044 11.341 9.223 20.519 20.563 20.563h294.241c11.342-.044 20.521-9.223 20.565-20.563z"/><path d="M282.415 61.841L326.542.063H185.335l44.127 61.778v17.651h52.953z"/></g><path d="M420.533 321.574l-19.681-31.683a34.696 34.696 0 01-3.707-15.709v-97.61a114.7 114.7 0 00-24.093-70.604C349.488 235.791 266.529 310.631 188.6 353.081h214.459c11.402.044 20.687-9.161 20.731-20.572a20.603 20.603 0 00-3.08-10.935h-.177z" fill="#6b962a"/><path d="M300.065 194.223v-5.648c-.044-16.354-13.3-29.609-29.654-29.654h-5.648V141.27h-17.651v17.651h-5.648c-16.38-.053-29.698 13.176-29.751 29.556a29.642 29.642 0 0019.337 27.897l16.062 6.001V256h-5.648c-6.628 0-12.003-5.375-12.003-12.003v-5.648H211.81v5.648c.044 16.354 13.3 29.609 29.654 29.654h28.948c16.38.053 29.698-13.176 29.751-29.556a29.642 29.642 0 00-19.337-27.897l-16.062-6.001v-33.625h5.648c6.628 0 12.003 5.375 12.003 12.003v5.648h17.65zm-25.417 38.479a12.185 12.185 0 017.766 11.297c0 6.628-5.375 12.003-12.003 12.003h-5.648v-27.006l9.885 3.706zm-27.535-29.124l-9.885-3.707a12.185 12.185 0 01-7.766-11.297c0-6.628 5.375-12.003 12.003-12.003h5.648v27.007z" fill="#fff"/><path d="M432.447 88.317c-3.001-18.11-17.192-32.301-35.302-35.302 18.11-3.001 32.301-17.192 35.302-35.302 3.001 18.11 17.192 32.301 35.302 35.302-18.11 3.001-32.301 17.193-35.302 35.302zM35.302 264.826C32.301 246.717 18.11 232.525 0 229.525c18.11-3.001 32.301-17.192 35.302-35.302 3.001 18.11 17.192 32.301 35.302 35.302-18.11 3-32.302 17.192-35.302 35.301z" fill="#fdb62f"/><path d="M508.081 307.983c-7.246-12.197-22.814-16.512-35.302-9.796l-125.233 53.482a17.712 17.712 0 01-6.972 1.412h-155.24c-9.752 0-17.651-7.899-17.651-17.651 0-9.752 7.899-17.651 17.651-17.651h70.604c29.248 0 52.953-23.705 52.953-52.953H162.035a80.245 80.245 0 00-62.572 30.095l-55.336 66.985 62.308 114.201 239.788-57.63a127.353 127.353 0 0029.83-10.944l123.556-63.279c12.294-7.721 16.071-23.898 8.472-36.271z" fill="#fec9a3"/><path d="M86.578 439.747l19.857 36.361 239.788-57.63a127.353 127.353 0 0029.83-10.944l66.809-34.331c-111.025 33.978-258.41 55.159-356.284 66.544z" fill="#f7bb8f"/><path fill="#4398d1" d="M0 353.081v158.858h114.731l26.476-26.476L35.302 326.605z"/><path d="M0 511.939h114.731l26.476-26.476-19.416-29.124A624.15 624.15 0 010 492.612v19.327z" fill="#3e8cc7"/><circle cx="79.429" cy="467.838" r="17.651" fill="#d9d9d9"/></svg>