<svg xmlns="http://www.w3.org/2000/svg" width="512" height="512" viewBox="0 0 510.141 510.141"><g xmlns="http://www.w3.org/2000/svg"><circle cx="255.07" cy="255.07" fill="#ebebeb" r="247.57" data-original="#fef0ae"/><path d="M155.87 255.07c0-110.884 72.914-204.738 173.399-236.259C305.848 11.464 280.916 7.5 255.07 7.5 118.34 7.5 7.5 118.34 7.5 255.07s110.84 247.57 247.57 247.57c25.846 0 50.785-3.966 74.207-11.314C228.792 459.806 155.87 365.955 155.87 255.07zM502.59 259.21h.01c-.58 35.83-8.78 69.81-23.04 100.39l-.02-.01c-19.11-7.74-32.59-26.46-32.59-48.35 0-28.8 23.35-52.15 52.15-52.15 1.17 0 2.33.05 3.49.12z" fill="#d6d6d5" data-original="#fee97d"/><path d="M255.07 463.83c21.57 0 39.7 14.77 44.8 34.76-14.53 2.66-29.5 4.05-44.8 4.05s-30.27-1.39-44.8-4.05c5.1-19.99 23.23-34.76 44.8-34.76z" fill="#9a9a9a" data-original="#fedf30"/><g fill="#fee97d"><path d="M314.82 353.39c16.67 0 30.19 13.52 30.19 30.19 0 16.68-13.52 30.19-30.19 30.19-16.68 0-30.2-13.51-30.2-30.19 0-16.67 13.52-30.19 30.2-30.19z" fill="#d6d6d5" data-original="#fee97d"/><circle cx="369.56" cy="304.23" r="21.35" fill="#d6d6d5" data-original="#fee97d"/><circle cx="323.58" cy="189.96" r="57.45" fill="#d6d6d5" data-original="#fee97d"/></g><circle cx="155.87" cy="303.77" fill="#d6d6d5" r="33.07" data-original="#fee45a"/><path d="M155.87 336.84a32.95 32.95 0 0012.923-2.623c-6.789-20.134-11.059-41.427-12.435-63.505-.163-.002-.324-.012-.488-.012-18.27 0-33.07 14.81-33.07 33.07s14.8 33.07 33.07 33.07zM94.49 199.07c11.15 0 20.19 9.04 20.19 20.18 0 11.15-9.04 20.19-20.19 20.19s-20.18-9.04-20.18-20.19c0-11.14 9.03-20.18 20.18-20.18zM180.82 18.84a99.138 99.138 0 013.45 25.95c0 54.63-44.29 98.92-98.93 98.92-16.4 0-31.87-4-45.49-11.06h-.01C70.49 78.87 120.72 37.7 180.82 18.83z" fill="#9a9a9a" data-original="#fedf30"/><g><path d="M436.052 75.342a7.501 7.501 0 00-10.644 10.57c44.182 44.488 68.843 103.263 69.691 165.823-31.034 2.068-55.654 27.959-55.654 59.507 0 21.751 11.616 41.339 30.155 51.844-11.377 22.54-26.403 43.367-44.775 61.739-33.353 33.353-74.797 55.667-119.901 65.144-8.085-20.116-27.678-33.643-49.855-33.643-22.175 0-41.76 13.53-49.844 33.645-45.108-9.477-86.555-31.791-119.911-65.146C39.972 379.482 15 319.195 15 255.07c0-39.937 9.69-78.383 27.951-112.659a106.886 106.886 0 0042.394 8.802c12.585 0 24.907-2.177 36.623-6.471a7.5 7.5 0 00-5.162-14.084c-10.057 3.686-20.642 5.555-31.46 5.555-12.152 0-23.845-2.315-34.867-6.884a241.843 241.843 0 0134.837-44.014c25.829-25.829 56.513-45.037 89.987-56.795a91.577 91.577 0 011.463 16.272c0 27.729-12.385 53.651-33.979 71.116a7.5 7.5 0 004.721 13.332 7.466 7.466 0 004.712-1.669c25.132-20.328 39.546-50.5 39.546-82.779 0-7.009-.69-13.987-2.05-20.827C210.717 18.061 232.657 15 255.07 15c53.826 0 104.7 17.416 147.122 50.364a7.5 7.5 0 0010.524-1.323 7.5 7.5 0 00-1.323-10.524C366.315 18.506 312.259 0 255.07 0 186.938 0 122.885 26.532 74.708 74.708 26.532 122.885 0 186.938 0 255.07s26.532 132.186 74.708 180.362c48.176 48.177 112.23 74.708 180.362 74.708s132.186-26.532 180.362-74.708c48.177-48.176 74.708-112.23 74.708-180.362.001-67.791-26.311-131.619-74.088-179.728zM220.444 492.668a38.718 38.718 0 0134.626-21.341 38.724 38.724 0 0134.632 21.34 243.565 243.565 0 01-69.258.001zm234.002-181.426c0-23.192 17.773-42.304 40.412-44.449-1.376 28.818-7.833 56.702-18.915 82.633-13.251-8.002-21.497-22.327-21.497-38.184z" data-original="#000000"/><path d="M323.68 239.906c-.106-.003-.213-.007-.32-.006a7.5 7.5 0 00-.149 14.998c.125.004.249.007.375.007 35.813 0 64.95-29.136 64.95-64.95s-29.136-64.95-64.95-64.95-64.95 29.136-64.95 64.95c0 22.245 11.207 42.7 29.979 54.72a7.501 7.501 0 008.088-12.633c-14.444-9.248-23.067-24.981-23.067-42.087 0-27.542 22.407-49.95 49.95-49.95s49.95 22.407 49.95 49.95c-.002 27.511-22.358 49.899-49.856 49.951zM155.868 344.338c22.37 0 40.568-18.199 40.568-40.568s-18.199-40.568-40.568-40.568S115.3 281.401 115.3 303.77s18.198 40.568 40.568 40.568zm0-66.136c14.099 0 25.568 11.47 25.568 25.568s-11.47 25.568-25.568 25.568-25.568-11.47-25.568-25.568 11.469-25.568 25.568-25.568zM94.491 191.57c-15.265 0-27.685 12.419-27.685 27.685s12.419 27.685 27.685 27.685 27.685-12.419 27.685-27.685-12.42-27.685-27.685-27.685zm0 40.369c-6.994 0-12.685-5.69-12.685-12.685s5.69-12.685 12.685-12.685 12.685 5.69 12.685 12.685-5.691 12.685-12.685 12.685zM314.815 421.274c20.783 0 37.691-16.908 37.691-37.691s-16.908-37.691-37.691-37.691-37.691 16.908-37.691 37.691 16.908 37.691 37.691 37.691zm0-60.382c12.512 0 22.691 10.179 22.691 22.691s-10.179 22.691-22.691 22.691-22.691-10.179-22.691-22.691 10.179-22.691 22.691-22.691zM398.412 304.231c0-15.907-12.941-28.849-28.848-28.849s-28.849 12.941-28.849 28.849 12.941 28.849 28.849 28.849c15.907 0 28.848-12.942 28.848-28.849zm-42.697 0c0-7.636 6.212-13.849 13.849-13.849 7.636 0 13.848 6.212 13.848 13.849s-6.212 13.849-13.848 13.849-13.849-6.213-13.849-13.849z" data-original="#000000"/></g></g></svg>