<svg height="512" width="512" xmlns="http://www.w3.org/2000/svg"><path d="M307.822 497c6.086 0 10.76-5.39 9.9-11.414l-46.873-328.107a15 15 0 00-29.698 0l-46.873 328.107c-.861 6.024 3.814 11.414 9.899 11.414z" fill="#d26432"/><path d="M317.722 485.586l-46.873-328.107a15 15 0 00-14.847-12.879V497h51.82c6.086 0 10.76-5.39 9.9-11.414z" fill="#a54628"/><path d="M413.125 6.739C410.313 2.437 405.38 0 400.241 0H328.3c-31.115 0-57.241 16.245-72.298 38.375C240.846 16.098 214.589 0 183.7 0h-71.941c-5.139 0-10.073 2.437-12.885 6.739a15.009 15.009 0 001.919 18.868l144.6 144.6c5.858 5.858 15.355 5.858 21.213 0l144.6-144.6a15.009 15.009 0 001.919-18.868z" fill="#c8ff50"/><path d="M411.207 25.606a15.01 15.01 0 001.919-18.868C410.313 2.437 405.38 0 400.241 0H328.3c-31.115 0-57.241 16.245-72.298 38.375V174.6c3.838 0 7.676-1.465 10.605-4.393z" fill="#87e752"/><path d="M368.467 512H143.533c-8.284 0-15-6.716-15-15s6.716-15 15-15h224.934c8.284 0 15 6.716 15 15s-6.716 15-15 15z" fill="#c8ff50"/><path d="M507.617 149.004s-15.429-15.461-35.29-35.323c-53.07-52.939-138.593-52.931-191.667.013A56374.998 56374.998 0 00256 138.369a51323.66 51323.66 0 00-24.673-24.688c-53.069-52.939-138.593-52.931-191.667.014-19.849 19.848-35.278 35.31-35.278 35.31A14.998 14.998 0 0015 174.6h482a15 15 0 0010.617-25.596z" fill="#87e752"/><path d="M510.855 165.348a15 15 0 00-3.237-16.343s-15.429-15.461-35.29-35.323c-53.07-52.939-138.593-52.931-191.667.013-9.708 9.708-18.353 18.36-24.658 24.673V174.6H497a15 15 0 0013.855-9.252z" fill="#4ec95f"/><path d="M383.467 497c0-8.284-6.716-15-15-15H256.002v30h112.465c8.284 0 15-6.716 15-15z" fill="#87e752"/><path d="M328.3 144.6H183.7c-47.552 0-87.3 38.498-87.3 87.3v72.3a15 15 0 0025.607 10.606L256 180.813l133.994 133.994a14.996 14.996 0 0016.347 3.252 15.001 15.001 0 009.26-13.858v-72.3C415.6 183.137 375.892 144.6 328.3 144.6z" fill="#4ec95f"/><path d="M400.604 319.201a15.001 15.001 0 0014.997-15v-72.3c0-48.763-39.708-87.3-87.3-87.3h-72.298v36.215l133.992 133.992a14.992 14.992 0 0010.609 4.393z" fill="#14aa6b"/></svg>