<svg xmlns="http://www.w3.org/2000/svg" width="512" height="512" viewBox="0 0 457.825 457.825"><g fill="#fff" xmlns="http://www.w3.org/2000/svg"><path d="M259.605 246.305a12.033 12.033 0 0010.116-9.97c13.445-82.06 70.751-154.119 155.08-182.37l.093-.031c3.713-1.242 6.69-4.174 7.755-7.942 1.957-6.924-2.245-13.534-8.689-15.096-26.845-6.51-55.786-5.783-83.913 3.64-52.79 17.685-89.435 61.543-100.334 112.297-.72 3.351-2.599 6.419-5.517 8.217a12.036 12.036 0 01-14.257-1.153c-39.294-34.182-95.146-47.249-148.1-29.509-27.99 9.377-51.437 26.113-68.915 47.333-3.162 3.839-3.9 9.256-1.52 13.623 2.817 5.168 8.882 7.491 14.345 5.656l.145-.048c84.199-28.207 173.203-5.327 233.364 51.877 2.77 2.634 6.567 4.043 10.347 3.476zM453.211 307.392c-18.598-10.981-40.412-17.026-63.596-16.381-43.652 1.214-81.147 25.829-100.804 61.495a9.41 9.41 0 01-7.981 4.864 9.409 9.409 0 01-8.231-4.42c-21.61-34.514-60.412-57.004-104.061-55.79-23.184.645-44.628 7.893-62.587 19.89a9.372 9.372 0 00-3.724 10.637 9.374 9.374 0 009.19 6.53l.119-.003c69.511-1.933 130.96 35.564 162.896 92.196a9.41 9.41 0 0016.632-.455c28.737-58.324 88.01-99.181 157.524-101.115l.119-.003a9.371 9.371 0 008.82-7.026 9.377 9.377 0 00-4.316-10.419z" data-original="#000000"/></g></svg>